<!-- Generated by IcoMoon.io -->
<svg version="1.1" xmlns="http://www.w3.org/2000/svg" width="32" height="32" viewBox="0 0 32 32">
<title>amazon</title>
<path fill="#f90" d="M0.060 24.027c0.096-0.155 0.249-0.165 0.464-0.029 4.848 2.813 10.125 4.221 15.827 4.221 3.803 0 7.557-0.711 11.263-2.127l0.42-0.187c0.184-0.080 0.312-0.133 0.391-0.173 0.301-0.117 0.52-0.061 0.7 0.173 0.16 0.232 0.12 0.448-0.16 0.64-0.341 0.253-0.8 0.547-1.341 0.872-1.659 0.991-3.52 1.755-5.58 2.301-2.040 0.541-4.060 0.813-6.021 0.813-3.020 0-5.88-0.528-8.58-1.583-2.693-1.059-5.093-2.547-7.24-4.467-0.133-0.099-0.2-0.2-0.2-0.293 0-0.063 0.027-0.12 0.059-0.163zM8.813 15.736c0-1.34 0.329-2.484 0.991-3.436 0.66-0.947 1.56-1.667 2.72-2.153 1.061-0.447 2.341-0.767 3.883-0.96 0.52-0.061 1.377-0.137 2.56-0.232v-0.493c0-1.24-0.14-2.077-0.4-2.5-0.403-0.573-1.040-0.867-1.92-0.867h-0.243c-0.64 0.061-1.195 0.261-1.661 0.613-0.467 0.36-0.767 0.84-0.9 1.461-0.080 0.4-0.275 0.62-0.58 0.68l-3.36-0.42c-0.331-0.080-0.496-0.24-0.496-0.52 0-0.061 0.009-0.12 0.029-0.2 0.329-1.72 1.14-3 2.427-3.84 1.301-0.821 2.8-1.3 4.52-1.4h0.72c2.2 0 3.943 0.579 5.184 1.72 0.18 0.2 0.36 0.4 0.54 0.64 0.16 0.22 0.299 0.419 0.377 0.6 0.1 0.179 0.2 0.44 0.26 0.76 0.080 0.339 0.14 0.56 0.18 0.68 0.040 0.139 0.083 0.4 0.101 0.82 0.013 0.417 0.027 0.657 0.027 0.737v7.040c0 0.501 0.080 0.96 0.22 1.381 0.14 0.417 0.28 0.72 0.42 0.899l0.68 0.899c0.12 0.181 0.181 0.341 0.181 0.48 0 0.16-0.080 0.301-0.24 0.419-1.6 1.4-2.48 2.16-2.617 2.28-0.22 0.18-0.5 0.2-0.84 0.060-0.26-0.221-0.5-0.443-0.701-0.661l-0.413-0.463c-0.080-0.099-0.221-0.28-0.423-0.56l-0.4-0.58c-1.080 1.181-2.137 1.92-3.2 2.22-0.659 0.2-1.457 0.303-2.44 0.303-1.48 0-2.72-0.457-3.68-1.379-0.96-0.92-1.44-2.22-1.44-3.92zM13.817 15.152c0 0.755 0.187 1.36 0.567 1.819 0.38 0.453 0.9 0.683 1.54 0.683 0.060 0 0.141-0.009 0.26-0.027 0.12-0.021 0.179-0.031 0.221-0.031 0.819-0.213 1.44-0.737 1.899-1.571 0.22-0.373 0.38-0.773 0.48-1.213 0.12-0.427 0.16-0.787 0.18-1.067 0.020-0.26 0.020-0.72 0.020-1.34v-0.72c-1.12 0-1.979 0.080-2.56 0.24-1.7 0.48-2.56 1.56-2.56 3.24zM26.033 24.521c0.040-0.080 0.1-0.147 0.176-0.227 0.483-0.324 0.952-0.547 1.4-0.667 0.733-0.177 1.453-0.296 2.149-0.32 0.187-0.016 0.373 0 0.547 0.040 0.867 0.080 1.4 0.224 1.563 0.44 0.084 0.12 0.12 0.304 0.12 0.52v0.2c0 0.68-0.187 1.48-0.553 2.4-0.371 0.92-0.885 1.664-1.541 2.24-0.097 0.080-0.187 0.12-0.263 0.12-0.040 0-0.080 0-0.12-0.016-0.12-0.059-0.143-0.16-0.085-0.32 0.72-1.68 1.075-2.857 1.075-3.52 0-0.2-0.040-0.36-0.116-0.459-0.193-0.221-0.733-0.343-1.632-0.343-0.324 0-0.711 0.021-1.16 0.061-0.484 0.060-0.933 0.12-1.333 0.18-0.12 0-0.197-0.019-0.24-0.059-0.040-0.040-0.048-0.063-0.027-0.103 0-0.023 0.008-0.040 0.027-0.084z"></path>
</svg>
