<!-- Generated by IcoMoon.io -->
<svg version="1.1" xmlns="http://www.w3.org/2000/svg" width="32" height="32" viewBox="0 0 32 32">
<title>cc</title>
<path fill="#aaa" d="M31.45 11.839c-1.483-5.486-5.794-9.805-11.279-11.279-1.334-0.364-2.734-0.55-4.18-0.55s-2.855 0.187-4.189 0.55c-5.476 1.474-9.796 5.794-11.27 11.279-0.364 1.334-0.55 2.734-0.55 4.18s0.196 2.845 0.55 4.18c1.483 5.476 5.794 9.796 11.279 11.279 1.334 0.364 2.734 0.55 4.189 0.55s2.855-0.196 4.189-0.55c5.476-1.483 9.796-5.794 11.279-11.279 0.364-1.334 0.55-2.734 0.55-4.18-0.019-1.446-0.215-2.845-0.569-4.18zM28.343 16.541c-0.252 6.036-5.896 11.895-12.697 11.755-6.288-0.131-12.473-5.579-12.203-13.015 0.196-5.7 5.616-12.11 12.38-11.783 6.521-0.438 12.809 5.98 12.52 13.043z"></path>
<path fill="#aaa" d="M24.788 18.202c-1.67 2.379-3.648 3.107-6.064 2.314-1.903-0.625-2.976-2.566-2.836-5.141 0.121-2.379 1.334-3.778 3.825-4.338 1.465-0.327 4.18 0.317 5.001 2.36-0.802 0.411-1.521 0.774-2.239 1.138-0.69-1.269-2.099-1.539-2.939-0.746-1.026 0.98-0.952 3.387 0.131 4.329 0.793 0.681 2.099 0.289 3.051-0.989 0.681 0.355 1.362 0.709 2.071 1.073z"></path>
<path fill="#aaa" d="M15.841 18.192c-0.896 2.192-3.685 3.116-6.008 2.332-1.922-0.644-3.051-2.696-2.845-5.252 0.177-2.304 1.689-3.937 4.049-4.273 1.586-0.224 4.31 0.606 4.693 2.435-0.653 0.364-1.315 0.728-1.996 1.101-1.409-1.25-2.454-1.465-3.191-0.616-0.793 0.905-0.653 3.508 0.215 4.161 0.942 0.7 2.192 0.345 3.116-0.924 0.653 0.336 1.315 0.69 1.969 1.036z"></path>
</svg>
