<!-- Generated by IcoMoon.io -->
<svg version="1.1" xmlns="http://www.w3.org/2000/svg" width="35" height="32" viewBox="0 0 35 32">
<title>Dance</title>
<path fill="#4a4a4a" d="M32.91 10.445c-1.806-4.361-6.497-8.845-13.387-8.703-4.684 0.097-9.361 0.032-14.045 0.026-2.31 0-2.323-0.013-2.774 2.213-0.548 2.697-1.065 5.4-1.619 8.213h1.155c1.4 0 2.8 0.013 4.206 0 0.503-0.006 0.768 0.142 0.735 0.71-0.174 3.148-0.323 6.29-0.477 9.439-0.142 2.826-0.271 5.652-0.413 8.645 0.465 0 0.845 0 1.219 0 3.568-0.006 7.135-0.071 10.703-0.006 4.465 0.084 8.181-1.529 11.323-4.652 4.142-4.135 5.548-10.626 3.374-15.884zM19.123 20.503c-0.503 0.019-1.006 0-1.703 0 0.135-2.677 0.252-5.213 0.413-7.742 0.013-0.181 0.316-0.465 0.523-0.497 2.613-0.439 4.858 1.058 5.084 3.361 0.252 2.613-1.652 4.768-4.316 4.877z"></path>
</svg>
