<!-- Generated by IcoMoon.io -->
<svg version="1.1" xmlns="http://www.w3.org/2000/svg" width="32" height="32" viewBox="0 0 32 32">
<title>huawei</title>
<path fill="#f00" d="M4.893 8.187c0 0-2.467 2.36-2.6 4.853v0.467c0.107 2.013 1.627 3.2 1.627 3.2 2.44 2.387 8.347 5.387 9.733 6.067 0 0 0.080 0.040 0.133-0.013l0.027-0.053v-0.053c-3.787-8.253-8.92-14.467-8.92-14.467zM12.867 24.8c-0.027-0.107-0.133-0.107-0.133-0.107l-9.84 0.347c1.067 1.907 2.867 3.373 4.747 2.933 1.28-0.333 4.213-2.373 5.173-3.067 0.080-0.067 0.053-0.12 0.053-0.107zM12.973 23.76c-4.32-2.92-12.693-7.387-12.693-7.387-0.2 0.613-0.267 1.2-0.28 1.733v0.093c0 1.427 0.533 2.427 0.533 2.427 1.067 2.253 3.12 2.933 3.12 2.933 0.933 0.4 1.867 0.413 1.867 0.413 0.16 0.027 5.867 0 7.387 0 0.067 0 0.107-0.067 0.107-0.067v-0.080c0-0.040-0.040-0.067-0.040-0.067zM12.080 4.253c-1.918 0.502-3.327 2.173-3.426 4.189l-0 0.011v0.547c0.040 0.8 0.213 1.4 0.213 1.4 0.88 3.867 5.147 10.2 6.067 11.533 0.067 0.067 0.133 0.040 0.133 0.040 0.048-0.021 0.080-0.068 0.080-0.122 0-0.004-0-0.008-0-0.011l0 0c1.413-14.133-1.48-17.893-1.48-17.893-0.427 0.027-1.587 0.307-1.587 0.307zM23.147 7.28c0 0-0.653-2.4-3.253-3.040 0 0-0.76-0.187-1.56-0.293 0 0-2.907 3.747-1.493 17.907 0.013 0.093 0.080 0.107 0.080 0.107 0.093 0.040 0.133-0.040 0.133-0.040 0.96-1.373 5.2-7.68 6.067-11.52 0 0 0.48-1.867 0.027-3.12zM19.253 24.707c0 0-0.093 0-0.12 0.067 0 0-0.013 0.093 0.040 0.133 0.933 0.68 3.8 2.667 5.173 3.067 0 0 0.213 0.067 0.573 0.080h0.187c0.92-0.027 2.533-0.493 4-3.013zM29.693 13.493c0.187-2.747-2.587-5.293-2.587-5.307 0 0-5.133 6.213-8.893 14.4 0 0-0.040 0.107 0.027 0.173l0.053 0.013h0.080c1.413-0.707 7.28-3.693 9.707-6.053 0 0 1.533-1.24 1.613-3.227zM31.72 16.347c0 0-8.373 4.493-12.693 7.4 0 0-0.067 0.053-0.040 0.147 0 0 0.040 0.080 0.093 0.080 1.547 0 7.413 0 7.56-0.027 0 0 0.76-0.027 1.693-0.387 0 0 2.080-0.667 3.16-3.027 0 0 0.973-1.933 0.227-4.187z"></path>
</svg>
