<!-- Generated by IcoMoon.io -->
<svg version="1.1" xmlns="http://www.w3.org/2000/svg" width="32" height="32" viewBox="0 0 32 32">
<title>iconmonstr-power-on-off-12</title>
<path d="M15.103 19.812c-0.289-0.864 0.041-1.777 0.793-2.312 0.379-0.269 0.812-0.408 1.243-0.408 0.423 0 0.844 0.135 1.203 0.411-0.28-0.939-1.135-1.503-2.021-1.503-0.416 0-0.84 0.124-1.215 0.392-1.176 0.839-1.172 2.584-0.003 3.42zM18.621 28.391c0.933 0.313 3.824 1.113 7.173 3.609l6.205-4.425c-1.611-2.256-1.167-3.835-2.767-6.077-0.619-0.869-1.18-1.445-2.087-1.445-0.239 0-0.417 0.036-0.764 0.1l0.563 0.789c0.141 0.197 0.095 0.473-0.103 0.615-0.199 0.141-0.473 0.095-0.615-0.103l-0.503-0.704c-0.145-0.204-0.38-0.321-0.625-0.321-0.091 0-0.080-0.009-1.304 0.273l0.684 0.957c0.14 0.197 0.095 0.472-0.103 0.615-0.197 0.141-0.472 0.096-0.615-0.104l-0.592-0.829c-0.145-0.204-0.38-0.321-0.623-0.321-0.111 0-0.089-0.007-1.347 0.312l0.724 1.012c0.14 0.197 0.093 0.472-0.104 0.615-0.196 0.141-0.472 0.095-0.613-0.103l-2.931-4.103c-0.385-0.541-1.139-0.667-1.68-0.281s-0.668 1.139-0.281 1.68l4.328 6.067c-1.16-0.429-2.956-0.617-3.289 0.587-0.199 0.717 0.376 1.288 1.267 1.587zM21.428 4.761l1.601-2.135c3.807 2.649 6.304 7.051 6.304 12.040 0 1.072-0.123 2.115-0.341 3.123-0.527-0.239-1.132-0.404-1.847-0.404-0.312 0-0.571 0.032-0.82 0.072 0.215-0.897 0.341-1.828 0.341-2.791 0-4.109-2.079-7.741-5.239-9.905zM12 13.333v-13.333h5.333v13.333h-5.333zM15.416 29.296l-0.749 0.037c-8.099 0-14.667-6.567-14.667-14.667 0-5 2.508-9.412 6.329-12.059l1.643 2.104c-3.197 2.157-5.305 5.815-5.305 9.955 0 6.616 5.383 12 12 12h0.015c-0.095 0.869 0.124 1.813 0.735 2.629z"></path>
</svg>
