<!-- Generated by IcoMoon.io -->
<svg version="1.1" xmlns="http://www.w3.org/2000/svg" width="32" height="32" viewBox="0 0 32 32">
<title>iconmonstr-log-out-13</title>
<path d="M28 19.832v-2.419h-4.333c-0.993 0-1.504-0.347-1.935-0.941l-2.279-3.069-3.721 4.032 2.012 2.865c0.637 1.004 0.685 1.689 0.685 2.603v7.764h-3.599v-7.299c-0.028-2.016-3.273-3.927-4.404-2.297l-2.156 3.041c-0.479 0.68-1.295 0.915-2.087 0.915h-6.184v-3.495l4.644-0.004c0.725 0 1.356-0.257 1.699-1.075l2.065-5.043c0.359-0.751 0.843-1.435 1.435-2.020l4.812-4.764-1.36-1.188c-0.408-0.356-0.955-0.508-1.488-0.415l-3.999 0.7-0.628-2.935 5.487-1.045c1.028-0.196 1.911 0.137 2.679 0.848l5.281 4.875c0.837 0.76 1.696 2.084 3.035 4.063 0.245 0.363 0.591 0.875 1.404 0.875h2.935v-2.467l4 3.947-4 3.948zM23.865 8.169c1.871-0.357 3.097-2.164 2.74-4.035-0.359-1.871-2.165-3.097-4.035-2.74-1.871 0.359-3.097 2.165-2.74 4.035 0.357 1.872 2.164 3.099 4.035 2.74z"></path>
</svg>
