<!-- Generated by IcoMoon.io -->
<svg version="1.1" xmlns="http://www.w3.org/2000/svg" width="32" height="32" viewBox="0 0 32 32">
<title>mercedes</title>
<path d="M16.007 0c8.831 0 16 7.169 16 16s-7.169 16-16 16-16-7.169-16-16 7.169-16 16-16zM4.333 23.385c2.487 3.888 6.782 6.428 11.671 6.428 0.001 0 0.002 0 0.002 0h-0c4.908 0 9.223-2.565 11.673-6.428l-11.673-4.448zM18.551 14.531l9.689 7.887c0.995-1.855 1.58-4.058 1.58-6.397 0-0.007 0-0.014-0-0.021v0.001c0-7.436-5.889-13.508-13.253-13.803zM15.447 2.197c-7.364 0.295-13.253 6.367-13.253 13.803 0 2.316 0.571 4.499 1.58 6.417l9.689-7.887z"></path>
</svg>
