<!-- Generated by IcoMoon.io -->
<svg version="1.1" xmlns="http://www.w3.org/2000/svg" width="32" height="32" viewBox="0 0 32 32">
<title>shell</title>
<path fill="#ffd500" d="M16 1.151c-8.88 0-16 7.184-16 16.156 0 1.328 0.051 1.832 0.328 3.107l4.883 3.613 0.76 6.020h8.136l0.435 0.303c0.503 0.349 0.94 0.5 1.443 0.5 0.469 0 0.976-0.135 1.365-0.417l0.52-0.385h8.125l0.751-6.020 4.927-3.613c0.277-1.275 0.328-1.779 0.328-3.107 0-8.971-7.119-16.156-16-16.156zM17.328 4.161c1.2 0 2.371 0.299 3.349 0.865l-3.287 16.731 4.56-16.083c1.412 0.48 2.484 1.255 3.344 2.419l0.033 0.045-6.536 14.153 7.429-12.951 0.044 0.040c1.011 0.944 1.663 2.089 1.989 3.531l-8.26 10.221 8.581-8.667 0.013 0.028c0.337 0.751 0.556 1.813 0.556 2.661 0 0.679-0.032 0.949-0.219 1.667l-4.739 3.469-0.623 4.947h-5.967l-0.689 0.527c-0.265 0.211-0.643 0.355-0.909 0.355-0.265 0-0.644-0.144-0.909-0.355l-0.689-0.525h-5.972l-0.593-4.813-4.836-3.555c-0.147-0.581-0.213-1.107-0.213-1.681 0-0.96 0.212-1.987 0.568-2.737l0.017-0.032 8.6 8.735-8.305-10.328c0.333-1.417 1.165-2.787 2.187-3.617l7.389 13.035-6.604-14.112c0.74-1.085 1.933-1.94 3.395-2.436l4.565 16.092-3.459-16.701 0.073-0.040c1.085-0.6 2.131-0.876 3.276-0.876 0.26 0 0.381 0.005 0.704 0.040l0.783 17.4 0.613-17.412c0.299-0.033 0.412-0.039 0.739-0.039z"></path>
</svg>
