<!-- Generated by IcoMoon.io -->
<svg version="1.1" xmlns="http://www.w3.org/2000/svg" width="38" height="32" viewBox="0 0 38 32">
<title>vitaldance</title>
<path fill="#666" d="M37.239 0.566c-6.074 10.534-12.064 20.927-18.11 31.419l-10.209-17.657c-0.212-0.382-0.439-0.538-0.906-0.538-2.28 0.028-4.573 0.014-6.853 0.014-0.198 0-0.382-0.014-0.665-0.042 0.113-0.227 0.184-0.368 0.269-0.51 1.303-2.195 2.619-4.375 3.922-6.57 0.184-0.311 0.382-0.439 0.765-0.439 2.365 0.014 4.729 0.014 7.108 0 0.354 0 0.538 0.113 0.722 0.411 1.784 3.143 5.664 9.827 5.834 10.096 0.127-0.184 6.074-10.549 8.934-15.589 0.241-0.439 0.51-0.609 1.019-0.595 2.464 0.014 4.927 0 7.405 0h0.765z"></path>
</svg>
