<!-- Generated by IcoMoon.io -->
<svg version="1.1" xmlns="http://www.w3.org/2000/svg" width="32" height="32" viewBox="0 0 32 32">
<title>xiaomi</title>
<path fill="#fa6709" d="M26.613 26.667c-0.236 0-0.427-0.191-0.427-0.427v0-20.48c0-0.236 0.191-0.427 0.427-0.427v0h4.947c0.004-0 0.009-0 0.013-0 0.236 0 0.427 0.191 0.427 0.427 0 0 0 0 0 0v0 20.48c0 0 0 0 0 0 0 0.236-0.191 0.427-0.427 0.427-0.005 0-0.009-0-0.014-0l0.001 0zM18.32 26.667c0 0-0.4-0.12-0.4-0.427v-12.573c0.001-0.028 0.002-0.061 0.002-0.093 0-1.605-1.301-2.907-2.907-2.907-0.010 0-0.020 0-0.030 0h-9.252c-0.533 0-0.4 0.4-0.4 0.4v15.173c0 0.36-0.4 0.427-0.4 0.427h-4.493c-0.004 0-0.009 0-0.013 0-0.236 0-0.427-0.191-0.427-0.427 0-0 0-0 0-0v0-20.48c0-0 0-0 0-0 0-0.236 0.191-0.427 0.427-0.427 0.005 0 0.009 0 0.014 0l-0.001-0h17.147c3.13 0.023 5.659 2.561 5.667 5.693v0.001l0.013 15.213c0 0.236-0.191 0.427-0.427 0.427v0zM9.12 26.667c-0.221 0-0.4-0.179-0.4-0.4v-12c0-0.221 0.179-0.4 0.4-0.4v0h5.027c0.215 0.007 0.387 0.184 0.387 0.4 0 0 0 0 0 0v0 12c0 0.221-0.179 0.4-0.4 0.4v0z"></path>
</svg>
