<!-- Generated by IcoMoon.io -->
<svg version="1.1" xmlns="http://www.w3.org/2000/svg" width="32" height="32" viewBox="0 0 32 32">
<title>zoom</title>
<path fill="#2d8cff" d="M6.116 18.173l-0.36-0.016h-3.236l4.313-4.313-0.017-0.36c-0.014-0.579-0.481-1.046-1.059-1.060l-0.001-0-0.36-0.017h-5.391l0.019 0.36c0.045 0.584 0.471 1.027 1.059 1.060l0.36 0.017h3.237l-4.316 4.313 0.019 0.359c0.020 0.577 0.483 1.040 1.060 1.061l0.36 0.017h5.392l-0.019-0.36c-0.048-0.591-0.467-1.023-1.060-1.061zM10.432 12.407h-0.005c-1.983 0.002-3.591 1.61-3.591 3.593s1.609 3.593 3.593 3.593 3.593-1.609 3.593-3.593c0-1.984-1.607-3.592-3.591-3.593h-0zM11.953 17.525c-0.394 0.413-0.948 0.67-1.563 0.67-1.191 0-2.157-0.966-2.157-2.157 0-0.614 0.257-1.169 0.669-1.562l0.001-0.001c0.386-0.368 0.911-0.595 1.488-0.595 1.191 0 2.157 0.966 2.157 2.157 0 0.577-0.226 1.101-0.595 1.488l0.001-0.001zM29.116 12.408c-0.856 0.001-1.624 0.375-2.151 0.969l-0.003 0.003c-0.528-0.599-1.298-0.975-2.155-0.975-0.001 0-0.002 0-0.003 0h0c-0.001 0-0.003 0-0.004 0-0.6 0-1.156 0.184-1.616 0.5l0.010-0.006c-0.28-0.311-0.907-0.493-1.264-0.493v7.189l0.36-0.017c0.6-0.040 1.036-0.465 1.060-1.061l0.017-0.36v-2.516l0.019-0.36c0.013-0.269 0.053-0.509 0.176-0.72 0.253-0.432 0.715-0.717 1.244-0.717 0.265 0 0.514 0.072 0.727 0.197l-0.007-0.004c0.218 0.128 0.395 0.305 0.519 0.516l0.004 0.007c0.124 0.213 0.16 0.452 0.176 0.72l0.019 0.361v2.516l0.017 0.359c0.036 0.587 0.467 1.024 1.060 1.061l0.36 0.017v-3.953l0.016-0.36c0.013-0.267 0.053-0.512 0.179-0.724 0.399-0.685 1.279-0.92 1.964-0.52 0.218 0.128 0.395 0.305 0.519 0.517l0.004 0.007c0.123 0.213 0.16 0.457 0.175 0.72l0.019 0.36v2.516l0.017 0.359c0.037 0.591 0.467 1.027 1.061 1.061l0.36 0.017v-4.313c-0.002-1.587-1.289-2.872-2.876-2.872-0.001 0-0.002 0-0.003 0h0zM15.436 13.459c-0.69 0.656-1.119 1.581-1.119 2.606 0 1.985 1.609 3.595 3.595 3.595 1.024 0 1.948-0.428 2.603-1.115l0.001-0.001c0.613-0.643 0.99-1.517 0.99-2.478 0-1.985-1.609-3.595-3.595-3.595-0.96 0-1.832 0.376-2.477 0.99l0.002-0.001zM19.501 17.525c-0.392 0.402-0.94 0.652-1.545 0.652-1.191 0-2.157-0.966-2.157-2.157 0-0.606 0.25-1.153 0.652-1.545l0-0c0.388-0.379 0.92-0.612 1.505-0.612 1.191 0 2.157 0.966 2.157 2.157 0 0.586-0.233 1.117-0.612 1.506l0-0z"></path>
</svg>
