<svg aria-hidden="true" style="position: absolute; width: 0; height: 0; overflow: hidden;" version="1.1" xmlns="http://www.w3.org/2000/svg" xmlns:xlink="http://www.w3.org/1999/xlink">
<defs>
<symbol id="icon-iconmonstr-log-out-13" viewBox="0 0 32 32">
<path d="M28 19.832v-2.419h-4.333c-0.993 0-1.504-0.347-1.935-0.941l-2.279-3.069-3.721 4.032 2.012 2.865c0.637 1.004 0.685 1.689 0.685 2.603v7.764h-3.599v-7.299c-0.028-2.016-3.273-3.927-4.404-2.297l-2.156 3.041c-0.479 0.68-1.295 0.915-2.087 0.915h-6.184v-3.495l4.644-0.004c0.725 0 1.356-0.257 1.699-1.075l2.065-5.043c0.359-0.751 0.843-1.435 1.435-2.020l4.812-4.764-1.36-1.188c-0.408-0.356-0.955-0.508-1.488-0.415l-3.999 0.7-0.628-2.935 5.487-1.045c1.028-0.196 1.911 0.137 2.679 0.848l5.281 4.875c0.837 0.76 1.696 2.084 3.035 4.063 0.245 0.363 0.591 0.875 1.404 0.875h2.935v-2.467l4 3.947-4 3.948zM23.865 8.169c1.871-0.357 3.097-2.164 2.74-4.035-0.359-1.871-2.165-3.097-4.035-2.74-1.871 0.359-3.097 2.165-2.74 4.035 0.357 1.872 2.164 3.099 4.035 2.74z"></path>
</symbol>
<symbol id="icon-iconmonstr-power-on-off-12" viewBox="0 0 32 32">
<path d="M15.103 19.812c-0.289-0.864 0.041-1.777 0.793-2.312 0.379-0.269 0.812-0.408 1.243-0.408 0.423 0 0.844 0.135 1.203 0.411-0.28-0.939-1.135-1.503-2.021-1.503-0.416 0-0.84 0.124-1.215 0.392-1.176 0.839-1.172 2.584-0.003 3.42zM18.621 28.391c0.933 0.313 3.824 1.113 7.173 3.609l6.205-4.425c-1.611-2.256-1.167-3.835-2.767-6.077-0.619-0.869-1.18-1.445-2.087-1.445-0.239 0-0.417 0.036-0.764 0.1l0.563 0.789c0.141 0.197 0.095 0.473-0.103 0.615-0.199 0.141-0.473 0.095-0.615-0.103l-0.503-0.704c-0.145-0.204-0.38-0.321-0.625-0.321-0.091 0-0.080-0.009-1.304 0.273l0.684 0.957c0.14 0.197 0.095 0.472-0.103 0.615-0.197 0.141-0.472 0.096-0.615-0.104l-0.592-0.829c-0.145-0.204-0.38-0.321-0.623-0.321-0.111 0-0.089-0.007-1.347 0.312l0.724 1.012c0.14 0.197 0.093 0.472-0.104 0.615-0.196 0.141-0.472 0.095-0.613-0.103l-2.931-4.103c-0.385-0.541-1.139-0.667-1.68-0.281s-0.668 1.139-0.281 1.68l4.328 6.067c-1.16-0.429-2.956-0.617-3.289 0.587-0.199 0.717 0.376 1.288 1.267 1.587zM21.428 4.761l1.601-2.135c3.807 2.649 6.304 7.051 6.304 12.040 0 1.072-0.123 2.115-0.341 3.123-0.527-0.239-1.132-0.404-1.847-0.404-0.312 0-0.571 0.032-0.82 0.072 0.215-0.897 0.341-1.828 0.341-2.791 0-4.109-2.079-7.741-5.239-9.905zM12 13.333v-13.333h5.333v13.333h-5.333zM15.416 29.296l-0.749 0.037c-8.099 0-14.667-6.567-14.667-14.667 0-5 2.508-9.412 6.329-12.059l1.643 2.104c-3.197 2.157-5.305 5.815-5.305 9.955 0 6.616 5.383 12 12 12h0.015c-0.095 0.869 0.124 1.813 0.735 2.629z"></path>
</symbol>
<symbol id="icon-cc" viewBox="0 0 32 32">
<path  d="M31.45 11.839c-1.483-5.486-5.794-9.805-11.279-11.279-1.334-0.364-2.734-0.55-4.18-0.55s-2.855 0.187-4.189 0.55c-5.476 1.474-9.796 5.794-11.27 11.279-0.364 1.334-0.55 2.734-0.55 4.18s0.196 2.845 0.55 4.18c1.483 5.476 5.794 9.796 11.279 11.279 1.334 0.364 2.734 0.55 4.189 0.55s2.855-0.196 4.189-0.55c5.476-1.483 9.796-5.794 11.279-11.279 0.364-1.334 0.55-2.734 0.55-4.18-0.019-1.446-0.215-2.845-0.569-4.18zM28.343 16.541c-0.252 6.036-5.896 11.895-12.697 11.755-6.288-0.131-12.473-5.579-12.203-13.015 0.196-5.7 5.616-12.11 12.38-11.783 6.521-0.438 12.809 5.98 12.52 13.043z"></path>
<path  d="M24.788 18.202c-1.67 2.379-3.648 3.107-6.064 2.314-1.903-0.625-2.976-2.566-2.836-5.141 0.121-2.379 1.334-3.778 3.825-4.338 1.465-0.327 4.18 0.317 5.001 2.36-0.802 0.411-1.521 0.774-2.239 1.138-0.69-1.269-2.099-1.539-2.939-0.746-1.026 0.98-0.952 3.387 0.131 4.329 0.793 0.681 2.099 0.289 3.051-0.989 0.681 0.355 1.362 0.709 2.071 1.073z"></path>
<path  d="M15.841 18.192c-0.896 2.192-3.685 3.116-6.008 2.332-1.922-0.644-3.051-2.696-2.845-5.252 0.177-2.304 1.689-3.937 4.049-4.273 1.586-0.224 4.31 0.606 4.693 2.435-0.653 0.364-1.315 0.728-1.996 1.101-1.409-1.25-2.454-1.465-3.191-0.616-0.793 0.905-0.653 3.508 0.215 4.161 0.942 0.7 2.192 0.345 3.116-0.924 0.653 0.336 1.315 0.69 1.969 1.036z"></path>
</symbol>
<symbol id="icon-vitaldance" viewBox="0 0 38 32">
<path  d="M37.239 0.566c-6.074 10.534-12.064 20.927-18.11 31.419l-10.209-17.657c-0.212-0.382-0.439-0.538-0.906-0.538-2.28 0.028-4.573 0.014-6.853 0.014-0.198 0-0.382-0.014-0.665-0.042 0.113-0.227 0.184-0.368 0.269-0.51 1.303-2.195 2.619-4.375 3.922-6.57 0.184-0.311 0.382-0.439 0.765-0.439 2.365 0.014 4.729 0.014 7.108 0 0.354 0 0.538 0.113 0.722 0.411 1.784 3.143 5.664 9.827 5.834 10.096 0.127-0.184 6.074-10.549 8.934-15.589 0.241-0.439 0.51-0.609 1.019-0.595 2.464 0.014 4.927 0 7.405 0h0.765z"></path>
</symbol>
<symbol id="icon-vmlogo" viewBox="0 0 51 32">
<path d="M15.726 6.299l5.030-6.269 30.659 0.023-25.653 31.875-25.652-31.875h8.976l16.676 20.722 10.978-13.64 1.762-2.118h-1.796l-10.944 13.527-4.46-5.554 6.461-7.974-2.018-0.001-5.56 6.838z"></path>
</symbol>
<symbol id="icon-amazon" viewBox="0 0 32 32">
<path  d="M0.060 24.027c0.096-0.155 0.249-0.165 0.464-0.029 4.848 2.813 10.125 4.221 15.827 4.221 3.803 0 7.557-0.711 11.263-2.127l0.42-0.187c0.184-0.080 0.312-0.133 0.391-0.173 0.301-0.117 0.52-0.061 0.7 0.173 0.16 0.232 0.12 0.448-0.16 0.64-0.341 0.253-0.8 0.547-1.341 0.872-1.659 0.991-3.52 1.755-5.58 2.301-2.040 0.541-4.060 0.813-6.021 0.813-3.020 0-5.88-0.528-8.58-1.583-2.693-1.059-5.093-2.547-7.24-4.467-0.133-0.099-0.2-0.2-0.2-0.293 0-0.063 0.027-0.12 0.059-0.163zM8.813 15.736c0-1.34 0.329-2.484 0.991-3.436 0.66-0.947 1.56-1.667 2.72-2.153 1.061-0.447 2.341-0.767 3.883-0.96 0.52-0.061 1.377-0.137 2.56-0.232v-0.493c0-1.24-0.14-2.077-0.4-2.5-0.403-0.573-1.040-0.867-1.92-0.867h-0.243c-0.64 0.061-1.195 0.261-1.661 0.613-0.467 0.36-0.767 0.84-0.9 1.461-0.080 0.4-0.275 0.62-0.58 0.68l-3.36-0.42c-0.331-0.080-0.496-0.24-0.496-0.52 0-0.061 0.009-0.12 0.029-0.2 0.329-1.72 1.14-3 2.427-3.84 1.301-0.821 2.8-1.3 4.52-1.4h0.72c2.2 0 3.943 0.579 5.184 1.72 0.18 0.2 0.36 0.4 0.54 0.64 0.16 0.22 0.299 0.419 0.377 0.6 0.1 0.179 0.2 0.44 0.26 0.76 0.080 0.339 0.14 0.56 0.18 0.68 0.040 0.139 0.083 0.4 0.101 0.82 0.013 0.417 0.027 0.657 0.027 0.737v7.040c0 0.501 0.080 0.96 0.22 1.381 0.14 0.417 0.28 0.72 0.42 0.899l0.68 0.899c0.12 0.181 0.181 0.341 0.181 0.48 0 0.16-0.080 0.301-0.24 0.419-1.6 1.4-2.48 2.16-2.617 2.28-0.22 0.18-0.5 0.2-0.84 0.060-0.26-0.221-0.5-0.443-0.701-0.661l-0.413-0.463c-0.080-0.099-0.221-0.28-0.423-0.56l-0.4-0.58c-1.080 1.181-2.137 1.92-3.2 2.22-0.659 0.2-1.457 0.303-2.44 0.303-1.48 0-2.72-0.457-3.68-1.379-0.96-0.92-1.44-2.22-1.44-3.92zM13.817 15.152c0 0.755 0.187 1.36 0.567 1.819 0.38 0.453 0.9 0.683 1.54 0.683 0.060 0 0.141-0.009 0.26-0.027 0.12-0.021 0.179-0.031 0.221-0.031 0.819-0.213 1.44-0.737 1.899-1.571 0.22-0.373 0.38-0.773 0.48-1.213 0.12-0.427 0.16-0.787 0.18-1.067 0.020-0.26 0.020-0.72 0.020-1.34v-0.72c-1.12 0-1.979 0.080-2.56 0.24-1.7 0.48-2.56 1.56-2.56 3.24zM26.033 24.521c0.040-0.080 0.1-0.147 0.176-0.227 0.483-0.324 0.952-0.547 1.4-0.667 0.733-0.177 1.453-0.296 2.149-0.32 0.187-0.016 0.373 0 0.547 0.040 0.867 0.080 1.4 0.224 1.563 0.44 0.084 0.12 0.12 0.304 0.12 0.52v0.2c0 0.68-0.187 1.48-0.553 2.4-0.371 0.92-0.885 1.664-1.541 2.24-0.097 0.080-0.187 0.12-0.263 0.12-0.040 0-0.080 0-0.12-0.016-0.12-0.059-0.143-0.16-0.085-0.32 0.72-1.68 1.075-2.857 1.075-3.52 0-0.2-0.040-0.36-0.116-0.459-0.193-0.221-0.733-0.343-1.632-0.343-0.324 0-0.711 0.021-1.16 0.061-0.484 0.060-0.933 0.12-1.333 0.18-0.12 0-0.197-0.019-0.24-0.059-0.040-0.040-0.048-0.063-0.027-0.103 0-0.023 0.008-0.040 0.027-0.084z"></path>
</symbol>
<symbol id="icon-huawei" viewBox="0 0 32 32">
<path  d="M4.893 8.187c0 0-2.467 2.36-2.6 4.853v0.467c0.107 2.013 1.627 3.2 1.627 3.2 2.44 2.387 8.347 5.387 9.733 6.067 0 0 0.080 0.040 0.133-0.013l0.027-0.053v-0.053c-3.787-8.253-8.92-14.467-8.92-14.467zM12.867 24.8c-0.027-0.107-0.133-0.107-0.133-0.107l-9.84 0.347c1.067 1.907 2.867 3.373 4.747 2.933 1.28-0.333 4.213-2.373 5.173-3.067 0.080-0.067 0.053-0.12 0.053-0.107zM12.973 23.76c-4.32-2.92-12.693-7.387-12.693-7.387-0.2 0.613-0.267 1.2-0.28 1.733v0.093c0 1.427 0.533 2.427 0.533 2.427 1.067 2.253 3.12 2.933 3.12 2.933 0.933 0.4 1.867 0.413 1.867 0.413 0.16 0.027 5.867 0 7.387 0 0.067 0 0.107-0.067 0.107-0.067v-0.080c0-0.040-0.040-0.067-0.040-0.067zM12.080 4.253c-1.918 0.502-3.327 2.173-3.426 4.189l-0 0.011v0.547c0.040 0.8 0.213 1.4 0.213 1.4 0.88 3.867 5.147 10.2 6.067 11.533 0.067 0.067 0.133 0.040 0.133 0.040 0.048-0.021 0.080-0.068 0.080-0.122 0-0.004-0-0.008-0-0.011l0 0c1.413-14.133-1.48-17.893-1.48-17.893-0.427 0.027-1.587 0.307-1.587 0.307zM23.147 7.28c0 0-0.653-2.4-3.253-3.040 0 0-0.76-0.187-1.56-0.293 0 0-2.907 3.747-1.493 17.907 0.013 0.093 0.080 0.107 0.080 0.107 0.093 0.040 0.133-0.040 0.133-0.040 0.96-1.373 5.2-7.68 6.067-11.52 0 0 0.48-1.867 0.027-3.12zM19.253 24.707c0 0-0.093 0-0.12 0.067 0 0-0.013 0.093 0.040 0.133 0.933 0.68 3.8 2.667 5.173 3.067 0 0 0.213 0.067 0.573 0.080h0.187c0.92-0.027 2.533-0.493 4-3.013zM29.693 13.493c0.187-2.747-2.587-5.293-2.587-5.307 0 0-5.133 6.213-8.893 14.4 0 0-0.040 0.107 0.027 0.173l0.053 0.013h0.080c1.413-0.707 7.28-3.693 9.707-6.053 0 0 1.533-1.24 1.613-3.227zM31.72 16.347c0 0-8.373 4.493-12.693 7.4 0 0-0.067 0.053-0.040 0.147 0 0 0.040 0.080 0.093 0.080 1.547 0 7.413 0 7.56-0.027 0 0 0.76-0.027 1.693-0.387 0 0 2.080-0.667 3.16-3.027 0 0 0.973-1.933 0.227-4.187z"></path>
</symbol>
<symbol id="icon-mercedes" viewBox="0 0 32 32">
<path d="M16.007 0c8.831 0 16 7.169 16 16s-7.169 16-16 16-16-7.169-16-16 7.169-16 16-16zM4.333 23.385c2.487 3.888 6.782 6.428 11.671 6.428 0.001 0 0.002 0 0.002 0h-0c4.908 0 9.223-2.565 11.673-6.428l-11.673-4.448zM18.551 14.531l9.689 7.887c0.995-1.855 1.58-4.058 1.58-6.397 0-0.007 0-0.014-0-0.021v0.001c0-7.436-5.889-13.508-13.253-13.803zM15.447 2.197c-7.364 0.295-13.253 6.367-13.253 13.803 0 2.316 0.571 4.499 1.58 6.417l9.689-7.887z"></path>
</symbol>
<symbol id="icon-shell" viewBox="0 0 32 32">
<path d="M16 1.151c-8.88 0-16 7.184-16 16.156 0 1.328 0.051 1.832 0.328 3.107l4.883 3.613 0.76 6.020h8.136l0.435 0.303c0.503 0.349 0.94 0.5 1.443 0.5 0.469 0 0.976-0.135 1.365-0.417l0.52-0.385h8.125l0.751-6.020 4.927-3.613c0.277-1.275 0.328-1.779 0.328-3.107 0-8.971-7.119-16.156-16-16.156zM17.328 4.161c1.2 0 2.371 0.299 3.349 0.865l-3.287 16.731 4.56-16.083c1.412 0.48 2.484 1.255 3.344 2.419l0.033 0.045-6.536 14.153 7.429-12.951 0.044 0.040c1.011 0.944 1.663 2.089 1.989 3.531l-8.26 10.221 8.581-8.667 0.013 0.028c0.337 0.751 0.556 1.813 0.556 2.661 0 0.679-0.032 0.949-0.219 1.667l-4.739 3.469-0.623 4.947h-5.967l-0.689 0.527c-0.265 0.211-0.643 0.355-0.909 0.355-0.265 0-0.644-0.144-0.909-0.355l-0.689-0.525h-5.972l-0.593-4.813-4.836-3.555c-0.147-0.581-0.213-1.107-0.213-1.681 0-0.96 0.212-1.987 0.568-2.737l0.017-0.032 8.6 8.735-8.305-10.328c0.333-1.417 1.165-2.787 2.187-3.617l7.389 13.035-6.604-14.112c0.74-1.085 1.933-1.94 3.395-2.436l4.565 16.092-3.459-16.701 0.073-0.040c1.085-0.6 2.131-0.876 3.276-0.876 0.26 0 0.381 0.005 0.704 0.040l0.783 17.4 0.613-17.412c0.299-0.033 0.412-0.039 0.739-0.039z"></path>
</symbol>
<symbol id="icon-xiaomi" viewBox="0 0 32 32">
<path  d="M26.613 26.667c-0.236 0-0.427-0.191-0.427-0.427v0-20.48c0-0.236 0.191-0.427 0.427-0.427v0h4.947c0.004-0 0.009-0 0.013-0 0.236 0 0.427 0.191 0.427 0.427 0 0 0 0 0 0v0 20.48c0 0 0 0 0 0 0 0.236-0.191 0.427-0.427 0.427-0.005 0-0.009-0-0.014-0l0.001 0zM18.32 26.667c0 0-0.4-0.12-0.4-0.427v-12.573c0.001-0.028 0.002-0.061 0.002-0.093 0-1.605-1.301-2.907-2.907-2.907-0.010 0-0.020 0-0.030 0h-9.252c-0.533 0-0.4 0.4-0.4 0.4v15.173c0 0.36-0.4 0.427-0.4 0.427h-4.493c-0.004 0-0.009 0-0.013 0-0.236 0-0.427-0.191-0.427-0.427 0-0 0-0 0-0v0-20.48c0-0 0-0 0-0 0-0.236 0.191-0.427 0.427-0.427 0.005 0 0.009 0 0.014 0l-0.001-0h17.147c3.13 0.023 5.659 2.561 5.667 5.693v0.001l0.013 15.213c0 0.236-0.191 0.427-0.427 0.427v0zM9.12 26.667c-0.221 0-0.4-0.179-0.4-0.4v-12c0-0.221 0.179-0.4 0.4-0.4v0h5.027c0.215 0.007 0.387 0.184 0.387 0.4 0 0 0 0 0 0v0 12c0 0.221-0.179 0.4-0.4 0.4v0z"></path>
</symbol>
<symbol id="icon-zoom" viewBox="0 0 32 32">
<path  d="M6.116 18.173l-0.36-0.016h-3.236l4.313-4.313-0.017-0.36c-0.014-0.579-0.481-1.046-1.059-1.060l-0.001-0-0.36-0.017h-5.391l0.019 0.36c0.045 0.584 0.471 1.027 1.059 1.060l0.36 0.017h3.237l-4.316 4.313 0.019 0.359c0.020 0.577 0.483 1.040 1.060 1.061l0.36 0.017h5.392l-0.019-0.36c-0.048-0.591-0.467-1.023-1.060-1.061zM10.432 12.407h-0.005c-1.983 0.002-3.591 1.61-3.591 3.593s1.609 3.593 3.593 3.593 3.593-1.609 3.593-3.593c0-1.984-1.607-3.592-3.591-3.593h-0zM11.953 17.525c-0.394 0.413-0.948 0.67-1.563 0.67-1.191 0-2.157-0.966-2.157-2.157 0-0.614 0.257-1.169 0.669-1.562l0.001-0.001c0.386-0.368 0.911-0.595 1.488-0.595 1.191 0 2.157 0.966 2.157 2.157 0 0.577-0.226 1.101-0.595 1.488l0.001-0.001zM29.116 12.408c-0.856 0.001-1.624 0.375-2.151 0.969l-0.003 0.003c-0.528-0.599-1.298-0.975-2.155-0.975-0.001 0-0.002 0-0.003 0h0c-0.001 0-0.003 0-0.004 0-0.6 0-1.156 0.184-1.616 0.5l0.010-0.006c-0.28-0.311-0.907-0.493-1.264-0.493v7.189l0.36-0.017c0.6-0.040 1.036-0.465 1.060-1.061l0.017-0.36v-2.516l0.019-0.36c0.013-0.269 0.053-0.509 0.176-0.72 0.253-0.432 0.715-0.717 1.244-0.717 0.265 0 0.514 0.072 0.727 0.197l-0.007-0.004c0.218 0.128 0.395 0.305 0.519 0.516l0.004 0.007c0.124 0.213 0.16 0.452 0.176 0.72l0.019 0.361v2.516l0.017 0.359c0.036 0.587 0.467 1.024 1.060 1.061l0.36 0.017v-3.953l0.016-0.36c0.013-0.267 0.053-0.512 0.179-0.724 0.399-0.685 1.279-0.92 1.964-0.52 0.218 0.128 0.395 0.305 0.519 0.517l0.004 0.007c0.123 0.213 0.16 0.457 0.175 0.72l0.019 0.36v2.516l0.017 0.359c0.037 0.591 0.467 1.027 1.061 1.061l0.36 0.017v-4.313c-0.002-1.587-1.289-2.872-2.876-2.872-0.001 0-0.002 0-0.003 0h0zM15.436 13.459c-0.69 0.656-1.119 1.581-1.119 2.606 0 1.985 1.609 3.595 3.595 3.595 1.024 0 1.948-0.428 2.603-1.115l0.001-0.001c0.613-0.643 0.99-1.517 0.99-2.478 0-1.985-1.609-3.595-3.595-3.595-0.96 0-1.832 0.376-2.477 0.99l0.002-0.001zM19.501 17.525c-0.392 0.402-0.94 0.652-1.545 0.652-1.191 0-2.157-0.966-2.157-2.157 0-0.606 0.25-1.153 0.652-1.545l0-0c0.388-0.379 0.92-0.612 1.505-0.612 1.191 0 2.157 0.966 2.157 2.157 0 0.586-0.233 1.117-0.612 1.506l0-0z"></path>
</symbol>
<symbol id="icon-dollar" viewBox="0 0 16 28">
<path d="M15.281 18.516c0 3.187-2.281 5.703-5.594 6.25v2.734c0 0.281-0.219 0.5-0.5 0.5h-2.109c-0.266 0-0.5-0.219-0.5-0.5v-2.734c-3.656-0.516-5.656-2.703-5.734-2.797-0.156-0.187-0.172-0.453-0.031-0.641l1.609-2.109c0.078-0.109 0.219-0.172 0.359-0.187s0.281 0.031 0.375 0.141c0.031 0.016 2.219 2.109 4.984 2.109 1.531 0 3.187-0.812 3.187-2.578 0-1.5-1.844-2.234-3.953-3.078-2.812-1.109-6.312-2.516-6.312-6.438 0-2.875 2.25-5.25 5.516-5.875v-2.812c0-0.281 0.234-0.5 0.5-0.5h2.109c0.281 0 0.5 0.219 0.5 0.5v2.75c3.172 0.359 4.859 2.078 4.922 2.141 0.156 0.172 0.187 0.406 0.078 0.594l-1.266 2.281c-0.078 0.141-0.203 0.234-0.359 0.25-0.156 0.031-0.297-0.016-0.422-0.109-0.016-0.016-1.906-1.687-4.25-1.687-1.984 0-3.359 0.984-3.359 2.406 0 1.656 1.906 2.391 4.125 3.25 2.875 1.109 6.125 2.375 6.125 6.141z"></path>
</symbol>
<symbol id="icon-microphone" viewBox="0 0 32 32">
<path d="M18.251 12.906c0.617-2.099 0.356-4.4-0.782-6.327 0.025 0.035-10.879 11.027-10.957 10.958 1.895 1.119 4.196 1.434 6.267 0.856-0.015-0.053 5.428-5.495 5.472-5.487zM16.306 4.826c-1.469-1.448-3.571-2.43-5.794-2.43-4.493 0-8.136 3.652-8.136 8.156 0 2.198 1 4.326 2.41 5.793 0.003 0 11.451-11.425 11.52-11.519zM27.812 26.466c0 0 0.266-2.298-0.397-2.961-0.044-0.044-7.646-9.325-7.646-9.325l-5.657 5.657 9.281 7.689c0.619 0.707 3.005 0.354 3.005 0.354l1.9 1.724 1.326-1.326-1.812-1.812z"></path>
</symbol>
<symbol id="icon-ticket" viewBox="0 0 32 32">
<path d="M18 10l4 4-8 8-4-4zM31.298 9.297l-2.297-2.297-1 1c-0.512 0.512-1.219 0.828-2 0.828-1.562 0-2.829-1.266-2.829-2.828 0-0.781 0.317-1.489 0.829-2.001l1-1-2.297-2.297c-0.936-0.936-2.469-0.936-3.405 0l-18.595 18.595c-0.936 0.936-0.936 2.469 0 3.405l2.297 2.297 0.999-0.999c0.512-0.513 1.22-0.83 2.001-0.83 1.562 0 2.828 1.266 2.828 2.828 0 0.781-0.317 1.489-0.829 2.001l-1 1 2.297 2.297c0.936 0.936 2.469 0.936 3.405 0l18.595-18.595c0.936-0.937 0.936-2.469 0-3.406zM14 26l-8-8 12-12 8 8-12 12z"></path>
</symbol>
<symbol id="icon-location" viewBox="0 0 32 32">
<path d="M16 0c-5.523 0-10 4.477-10 10 0 10 10 22 10 22s10-12 10-22c0-5.523-4.477-10-10-10zM16 16c-3.314 0-6-2.686-6-6s2.686-6 6-6 6 2.686 6 6-2.686 6-6 6z"></path>
</symbol>
<symbol id="icon-map2" viewBox="0 0 32 32">
<path d="M21 6l-10-4-11 4v24l11-4 10 4 11-4v-24l-11 4zM12 4.554l8 3.2v19.692l-8-3.2v-19.692zM2 7.401l8-2.909v19.744l-8 2.909v-19.744zM30 24.599l-8 2.909v-19.744l8-2.909v19.744z"></path>
</symbol>
<symbol id="icon-facebook" viewBox="0 0 32 32">
<path d="M19 6h5v-6h-5c-3.86 0-7 3.14-7 7v3h-4v6h4v16h6v-16h5l1-6h-6v-3c0-0.542 0.458-1 1-1z"></path>
</symbol>
<symbol id="icon-twitter" viewBox="0 0 32 32">
<path d="M32 7.075c-1.175 0.525-2.444 0.875-3.769 1.031 1.356-0.813 2.394-2.1 2.887-3.631-1.269 0.75-2.675 1.3-4.169 1.594-1.2-1.275-2.906-2.069-4.794-2.069-3.625 0-6.563 2.938-6.563 6.563 0 0.512 0.056 1.012 0.169 1.494-5.456-0.275-10.294-2.888-13.531-6.862-0.563 0.969-0.887 2.1-0.887 3.3 0 2.275 1.156 4.287 2.919 5.463-1.075-0.031-2.087-0.331-2.975-0.819 0 0.025 0 0.056 0 0.081 0 3.181 2.263 5.838 5.269 6.437-0.55 0.15-1.131 0.231-1.731 0.231-0.425 0-0.831-0.044-1.237-0.119 0.838 2.606 3.263 4.506 6.131 4.563-2.25 1.762-5.075 2.813-8.156 2.813-0.531 0-1.050-0.031-1.569-0.094 2.913 1.869 6.362 2.95 10.069 2.95 12.075 0 18.681-10.006 18.681-18.681 0-0.287-0.006-0.569-0.019-0.85 1.281-0.919 2.394-2.075 3.275-3.394z"></path>
</symbol>
</defs>
</svg>
